<svg xmlns="http://www.w3.org/2000/svg" viewBox="0 0 800 450" width="800" height="450">
  <rect width="800" height="450" fill="#f2f2f2"/>
  <!-- Terminal-style window -->
  <rect x="100" y="80" width="600" height="290" rx="6" fill="#1e1e1e"/>
  <rect x="100" y="80" width="600" height="32" rx="6" fill="#2d2d2d"/>
  <rect x="100" y="96" width="600" height="16" fill="#2d2d2d"/>
  <circle cx="122" cy="96" r="6" fill="#555"/>
  <circle cx="142" cy="96" r="6" fill="#555"/>
  <circle cx="162" cy="96" r="6" fill="#555"/>
  <!-- Code lines -->
  <rect x="124" y="132" width="60" height="8" rx="2" fill="#888"/>
  <rect x="192" y="132" width="120" height="8" rx="2" fill="#aaa"/>
  <rect x="124" y="152" width="40" height="8" rx="2" fill="#888"/>
  <rect x="172" y="152" width="80" height="8" rx="2" fill="#bbb"/>
  <rect x="260" y="152" width="60" height="8" rx="2" fill="#999"/>
  <rect x="140" y="172" width="100" height="8" rx="2" fill="#999"/>
  <rect x="248" y="172" width="60" height="8" rx="2" fill="#bbb"/>
  <rect x="140" y="192" width="140" height="8" rx="2" fill="#aaa"/>
  <rect x="124" y="212" width="40" height="8" rx="2" fill="#888"/>
  <rect x="124" y="240" width="20" height="8" rx="2" fill="#777"/>
  <rect x="152" y="240" width="80" height="8" rx="2" fill="#999"/>
  <rect x="124" y="260" width="20" height="8" rx="2" fill="#777"/>
  <rect x="152" y="260" width="120" height="8" rx="2" fill="#aaa"/>
  <rect x="124" y="296" width="160" height="8" rx="2" fill="#888" opacity="0.6"/>
  <!-- Cursor blink -->
  <rect x="124" y="316" width="8" height="14" rx="1" fill="#aaa" opacity="0.8"/>
</svg>
