<svg xmlns="http://www.w3.org/2000/svg" viewBox="0 0 800 450" width="800" height="450">
  <rect width="800" height="450" fill="#f5f5f5"/>
  <rect x="60" y="60" width="680" height="40" rx="4" fill="#e8e8e8"/>
  <rect x="72" y="74" width="80" height="12" rx="2" fill="#c8c8c8"/>
  <rect x="172" y="74" width="60" height="12" rx="2" fill="#d4d4d4"/>
  <rect x="242" y="74" width="60" height="12" rx="2" fill="#d4d4d4"/>
  <rect x="60" y="120" width="440" height="270" rx="4" fill="#e0e0e0"/>
  <rect x="80" y="140" width="160" height="10" rx="2" fill="#c8c8c8"/>
  <rect x="80" y="162" width="380" height="8" rx="2" fill="#d4d4d4"/>
  <rect x="80" y="178" width="340" height="8" rx="2" fill="#d4d4d4"/>
  <rect x="80" y="194" width="360" height="8" rx="2" fill="#d4d4d4"/>
  <rect x="80" y="220" width="200" height="100" rx="4" fill="#d0d0d0"/>
  <rect x="520" y="120" width="220" height="130" rx="4" fill="#e8e8e8"/>
  <rect x="520" y="268" width="220" height="122" rx="4" fill="#e8e8e8"/>
  <rect x="532" y="132" width="100" height="8" rx="2" fill="#d0d0d0"/>
  <rect x="532" y="148" width="180" height="8" rx="2" fill="#d8d8d8"/>
  <rect x="532" y="164" width="160" height="8" rx="2" fill="#d8d8d8"/>
</svg>
